# xmcd
#
# Track frame offsets:
#	150
#	20695
#	35743
#	52818
#	72956
#	84437
#	100687
#	110933
#	132724
#	146756
#	168018
#	182890
#	205784
#	221344
#	240729
#	252261
#	266968
#
# Disc length: 3699 seconds
#
# Revision: 1
# Processed by: cddbd v1.5.2PL0 Copyright (c) Steve Scherf et al.
# Submitted via: audiograbber 1.83.01
#
DISCID=000e7111
DTITLE=Early Jerry Garcia - Sleepy Valley Hogstompers
DYEAR=1900
DGENRE=
TTITLE0=Chuck A Little Hill
TTITLE1=Billy Grimes
TTITLE2=Cannonball Blues
TTITLE3=Devilish Mary
TTITLE4=Buck Dancer's Choice
TTITLE5=Little Birdie
TTITLE6=Sally Goodun
TTITLE7=Hold The Woodpile Down
TTITLE8=Crow Black Children
TTITLE9=Johnson Boys
TTITLE10=Shady Grove
TTITLE11=Uncle Joe
TTITLE12=Sweet Sunny South
TTITLE13=Hungry Hash House
TTITLE14=Man Of Constant Sorrow
TTITLE15=Yonder He Goes
TTITLE16=Three Went A-Hunting
EXTD=
EXTT0=
EXTT1=
EXTT2=
EXTT3=
EXTT4=
EXTT5=
EXTT6=
EXTT7=
EXTT8=
EXTT9=
EXTT10=
EXTT11=
EXTT12=
EXTT13=
EXTT14=
EXTT15=
EXTT16=
PLAYORDER=
